# xmcd
#
# Track frame offsets:
#	150
#	14504
#	29171
#	44124
#	56728
#	74116
#	90466
#	108015
#	123397
#	136377
#	147743
#	158094
#
# Disc length: 2247 seconds
#
# Revision: 0
# Processed by: cddbd v1.5.2PL0 Copyright (c) Steve Scherf et al.
# Submitted via: audiograbber 1.83.01
#
DISCID=b908c50c
DTITLE=Various Artist - Billy The Early Years
DYEAR=2008
DGENRE=Country
TTITLE0=Brooks and Dunn - Over The Next Hill
TTITLE1=Sara Evans - Low
TTITLE2=Alan Jackson - Look At Me
TTITLE3=China Edelman  - Shelter Me
TTITLE4=Patty Griffin - Ruth's Prayer
TTITLE5=Brandon Heath - Heavenly Day
TTITLE6=Gregory Page - The Great Wild Beyond
TTITLE7=Michael W. Smith Featuring Melinda Doolittle - Amazing Love
TTITLE8=Roy Orbison - In Dreams
TTITLE9=Brad Paisley - What A Friend We Have In Jesus
TTITLE10=Josh Turner - Almost Persuaded
TTITLE11=Sierra Hull - Just As I Am
EXTD=
EXTT0=
EXTT1=
EXTT2=
EXTT3=
EXTT4=
EXTT5=
EXTT6=
EXTT7=
EXTT8=
EXTT9=
EXTT10=
EXTT11=
PLAYORDER=
